# This file uses meters as units for non-parametric coordinates.

mtllib Door_Ausgang.mtl
g default
v 90.962135 36.018650 -91.741455
v 88.585472 43.853413 -91.741455
v 84.726036 51.073959 -91.741455
v 79.532066 57.402836 -91.741455
v 73.203232 62.596813 -91.741455
v 65.982658 66.456276 -91.741455
v 58.147884 68.832924 -91.741455
v 50.000027 69.635422 -91.741455
v 41.852142 68.832954 -91.741455
v 34.017387 66.456306 -91.741455
v 26.796822 62.596844 -91.741455
v 20.467958 57.402870 -91.741455
v 15.273961 51.074001 -91.741455
v 11.414501 43.853451 -91.741455
v 9.037848 36.018688 -91.741455
v 8.235349 27.870808 -91.741455
v 9.037848 19.722931 -91.741455
v 11.414488 11.888165 -91.741455
v 15.273961 4.667604 -91.741455
v 20.467934 -1.661269 -91.741455
v 26.796797 -6.855253 -91.741455
v 34.017338 -10.714719 -91.741455
v 41.852116 -13.091379 -91.741455
v 50.000000 -13.893878 -91.741455
v 58.147884 -13.091382 -91.741455
v 65.982635 -10.714739 -91.741455
v 73.203178 -6.855272 -91.741455
v 79.532066 -1.661291 -91.741455
v 84.726036 4.667581 -91.741455
v 88.585526 11.888146 -91.741455
v 90.962189 19.722912 -91.741455
v 91.764679 27.870794 -91.741455
v 90.962135 36.018650 -94.233810
v 88.585472 43.853413 -94.233810
v 84.726036 51.073959 -94.233810
v 79.532066 57.402836 -94.233810
v 73.203232 62.596813 -94.233810
v 65.982658 66.456276 -94.233810
v 58.147884 68.832924 -94.233810
v 50.000027 69.635422 -94.233810
v 41.852142 68.832954 -94.233810
v 34.017387 66.456306 -94.233810
v 26.796822 62.596844 -94.233810
v 20.467958 57.402870 -94.233810
v 15.273961 51.074001 -94.233810
v 11.414501 43.853451 -94.233810
v 9.037848 36.018688 -94.233810
v 8.235349 27.870808 -94.233810
v 9.037848 19.722931 -94.233810
v 11.414488 11.888165 -94.233810
v 15.273961 4.667604 -94.233810
v 20.467934 -1.661269 -94.233810
v 26.796797 -6.855253 -94.233810
v 34.017338 -10.714719 -94.233810
v 41.852116 -13.091379 -94.233810
v 50.000000 -13.893878 -94.233810
v 58.147884 -13.091382 -94.233810
v 65.982635 -10.714739 -94.233810
v 73.203178 -6.855272 -94.233810
v 79.532066 -1.661291 -94.233810
v 84.726036 4.667581 -94.233810
v 88.585526 11.888146 -94.233810
v 90.962189 19.722912 -94.233810
v 91.764679 27.870794 -94.233810
v 50.000000 27.870794 -91.741455
v 50.000000 27.870794 -94.233810
vt 0.375000 0.312500
vt 0.375000 0.688440
vt 0.382813 0.688440
vt 0.382813 0.312500
vt 0.390625 0.688440
vt 0.390625 0.312500
vt 0.398438 0.688440
vt 0.398438 0.312500
vt 0.406250 0.688440
vt 0.406250 0.312500
vt 0.414063 0.688440
vt 0.414063 0.312500
vt 0.421875 0.688440
vt 0.421875 0.312500
vt 0.429688 0.688440
vt 0.429688 0.312500
vt 0.437500 0.688440
vt 0.437500 0.312500
vt 0.445313 0.688440
vt 0.445313 0.312500
vt 0.453125 0.688440
vt 0.453125 0.312500
vt 0.460938 0.688440
vt 0.460938 0.312500
vt 0.468750 0.688440
vt 0.468750 0.312500
vt 0.476563 0.688440
vt 0.476563 0.312500
vt 0.484375 0.688440
vt 0.484375 0.312500
vt 0.492188 0.688440
vt 0.492188 0.312500
vt 0.500000 0.688440
vt 0.500000 0.312500
vt 0.507813 0.688440
vt 0.507813 0.312500
vt 0.515625 0.688440
vt 0.515625 0.312500
vt 0.523438 0.688440
vt 0.523438 0.312500
vt 0.531250 0.688440
vt 0.531250 0.312500
vt 0.539063 0.688440
vt 0.539063 0.312500
vt 0.546875 0.688440
vt 0.546875 0.312500
vt 0.554688 0.688440
vt 0.554688 0.312500
vt 0.562500 0.688440
vt 0.562500 0.312500
vt 0.570313 0.688440
vt 0.570313 0.312500
vt 0.578125 0.688440
vt 0.578125 0.312500
vt 0.585938 0.688440
vt 0.585938 0.312500
vt 0.593750 0.688440
vt 0.593750 0.312500
vt 0.601563 0.688440
vt 0.601563 0.312500
vt 0.609375 0.688440
vt 0.609375 0.312500
vt 0.617188 0.688440
vt 0.617188 0.312500
vt 0.625000 0.688440
vt 0.625000 0.312500
vt 0.644356 0.096456
vt 0.500000 0.150000
vt 0.653248 0.125767
vt 0.629917 0.069442
vt 0.610485 0.045765
vt 0.586808 0.026333
vt 0.559794 0.011894
vt 0.530483 0.003002
vt 0.500000 0.000000
vt 0.469517 0.003002
vt 0.440206 0.011894
vt 0.413192 0.026333
vt 0.389515 0.045765
vt 0.370083 0.069442
vt 0.355644 0.096456
vt 0.346752 0.125767
vt 0.343750 0.156250
vt 0.346752 0.186733
vt 0.355644 0.216044
vt 0.370083 0.243058
vt 0.389515 0.266735
vt 0.413192 0.286167
vt 0.440206 0.300606
vt 0.469517 0.309498
vt 0.500000 0.312500
vt 0.530483 0.309498
vt 0.559794 0.300606
vt 0.586808 0.286167
vt 0.610485 0.266735
vt 0.629917 0.243058
vt 0.644356 0.216044
vt 0.653248 0.186733
vt 0.656250 0.156250
vt 0.653248 0.874233
vt 0.500000 0.837500
vt 0.644356 0.903544
vt 0.629917 0.930558
vt 0.610485 0.954235
vt 0.586808 0.973667
vt 0.559794 0.988106
vt 0.530483 0.996998
vt 0.500000 1.000000
vt 0.469517 0.996998
vt 0.440206 0.988106
vt 0.413192 0.973667
vt 0.389515 0.954235
vt 0.370083 0.930558
vt 0.355644 0.903544
vt 0.346752 0.874233
vt 0.343750 0.843750
vt 0.346752 0.813267
vt 0.355644 0.783956
vt 0.370083 0.756942
vt 0.389515 0.733265
vt 0.413192 0.713833
vt 0.440206 0.699394
vt 0.469517 0.690502
vt 0.500000 0.687500
vt 0.530483 0.690502
vt 0.559794 0.699394
vt 0.586808 0.713833
vt 0.610485 0.733265
vt 0.629917 0.756942
vt 0.644356 0.783956
vt 0.653248 0.813267
vt 0.656250 0.843750
vn 0.980785 0.195094 0.000000
vn 0.980785 0.195094 0.000000
vn 0.923879 0.382684 0.000000
vn 0.923879 0.382684 0.000000
vn 0.923879 0.382684 0.000000
vn 0.923879 0.382684 0.000000
vn 0.831470 0.555569 0.000000
vn 0.831470 0.555569 0.000000
vn 0.831470 0.555569 0.000000
vn 0.831470 0.555569 0.000000
vn 0.707108 0.707105 0.000000
vn 0.707108 0.707105 0.000000
vn 0.707108 0.707105 0.000000
vn 0.707108 0.707105 0.000000
vn 0.555571 0.831469 0.000000
vn 0.555571 0.831469 0.000000
vn 0.555571 0.831469 0.000000
vn 0.555571 0.831469 0.000000
vn 0.382682 0.923880 0.000000
vn 0.382682 0.923880 0.000000
vn 0.382682 0.923880 0.000000
vn 0.382682 0.923880 0.000000
vn 0.195091 0.980785 0.000000
vn 0.195091 0.980785 0.000000
vn 0.195091 0.980785 0.000000
vn 0.195091 0.980785 0.000000
vn 0.000002 1.000000 0.000000
vn 0.000002 1.000000 0.000000
vn 0.000002 1.000000 0.000000
vn 0.000002 1.000000 0.000000
vn -0.195089 0.980786 0.000000
vn -0.195089 0.980786 0.000000
vn -0.195089 0.980786 0.000000
vn -0.195089 0.980786 0.000000
vn -0.382682 0.923880 0.000000
vn -0.382682 0.923880 0.000000
vn -0.382682 0.923880 0.000000
vn -0.382682 0.923880 0.000000
vn -0.555571 0.831469 0.000000
vn -0.555571 0.831469 0.000000
vn -0.555571 0.831469 0.000000
vn -0.555571 0.831469 0.000000
vn -0.707106 0.707108 0.000000
vn -0.707106 0.707108 0.000000
vn -0.707106 0.707108 0.000000
vn -0.707106 0.707108 0.000000
vn -0.831469 0.555572 0.000000
vn -0.831469 0.555572 0.000000
vn -0.831469 0.555572 0.000000
vn -0.831469 0.555572 0.000000
vn -0.923880 0.382683 0.000000
vn -0.923880 0.382683 0.000000
vn -0.923880 0.382683 0.000000
vn -0.923880 0.382683 0.000000
vn -0.980785 0.195091 0.000000
vn -0.980785 0.195091 0.000000
vn -0.980785 0.195091 0.000000
vn -0.980785 0.195091 0.000000
vn -1.000000 0.000000 0.000000
vn -1.000000 0.000000 0.000000
vn -1.000000 0.000000 0.000000
vn -1.000000 0.000000 0.000000
vn -0.980785 -0.195090 0.000000
vn -0.980785 -0.195090 0.000000
vn -0.980785 -0.195090 0.000000
vn -0.980785 -0.195090 0.000000
vn -0.923880 -0.382683 0.000000
vn -0.923880 -0.382683 0.000000
vn -0.923880 -0.382683 0.000000
vn -0.923880 -0.382683 0.000000
vn -0.831470 -0.555570 0.000000
vn -0.831470 -0.555570 0.000000
vn -0.831470 -0.555570 0.000000
vn -0.831470 -0.555570 0.000000
vn -0.707108 -0.707105 0.000000
vn -0.707108 -0.707105 0.000000
vn -0.707108 -0.707105 0.000000
vn -0.707108 -0.707105 0.000000
vn -0.555571 -0.831469 0.000000
vn -0.555571 -0.831469 0.000000
vn -0.555571 -0.831469 0.000000
vn -0.555571 -0.831469 0.000000
vn -0.382683 -0.923880 0.000000
vn -0.382683 -0.923880 0.000000
vn -0.382683 -0.923880 0.000000
vn -0.382683 -0.923880 0.000000
vn -0.195091 -0.980785 0.000000
vn -0.195091 -0.980785 0.000000
vn -0.195091 -0.980785 0.000000
vn -0.195091 -0.980785 0.000000
vn 0.000000 -1.000000 0.000000
vn 0.000000 -1.000000 0.000000
vn 0.000000 -1.000000 0.000000
vn 0.000000 -1.000000 0.000000
vn 0.195090 -0.980785 0.000000
vn 0.195090 -0.980785 0.000000
vn 0.195090 -0.980785 0.000000
vn 0.195090 -0.980785 0.000000
vn 0.382682 -0.923880 0.000000
vn 0.382682 -0.923880 0.000000
vn 0.382682 -0.923880 0.000000
vn 0.382682 -0.923880 0.000000
vn 0.555570 -0.831470 0.000000
vn 0.555570 -0.831470 0.000000
vn 0.555570 -0.831470 0.000000
vn 0.555570 -0.831470 0.000000
vn 0.707107 -0.707106 0.000000
vn 0.707107 -0.707106 0.000000
vn 0.707107 -0.707106 0.000000
vn 0.707107 -0.707106 0.000000
vn 0.831470 -0.555570 0.000000
vn 0.831470 -0.555570 0.000000
vn 0.831470 -0.555570 0.000000
vn 0.831470 -0.555570 0.000000
vn 0.923879 -0.382685 0.000000
vn 0.923879 -0.382685 0.000000
vn 0.923879 -0.382685 0.000000
vn 0.923879 -0.382685 0.000000
vn 0.980785 -0.195091 0.000000
vn 0.980785 -0.195091 0.000000
vn 0.980785 -0.195091 0.000000
vn 0.980785 -0.195091 0.000000
vn 1.000000 0.000003 0.000000
vn 1.000000 0.000003 0.000000
vn 1.000000 0.000003 0.000000
vn 1.000000 0.000003 0.000000
vn 0.980785 0.195094 0.000000
vn 0.980785 0.195094 0.000000
vn 0.000000 0.000000 1.000000
vn 0.000000 0.000000 1.000000
vn 0.000000 0.000000 1.000000
vn 0.000000 0.000000 1.000000
vn 0.000000 0.000000 1.000000
vn 0.000000 0.000000 1.000000
vn 0.000000 0.000001 1.000000
vn 0.000000 0.000000 1.000000
vn 0.000000 0.000000 1.000000
vn 0.000000 0.000000 1.000000
vn 0.000000 0.000000 1.000000
vn 0.000000 0.000001 1.000000
vn 0.000000 0.000000 1.000000
vn 0.000000 0.000000 1.000000
vn 0.000000 0.000000 1.000000
vn 0.000000 0.000000 1.000000
vn 0.000000 0.000000 1.000000
vn 0.000000 0.000000 1.000000
vn 0.000000 0.000000 1.000000
vn 0.000000 0.000000 1.000000
vn 0.000000 0.000000 1.000000
vn 0.000000 0.000000 1.000000
vn 0.000000 0.000000 1.000000
vn 0.000000 0.000000 1.000000
vn 0.000000 0.000000 1.000000
vn 0.000000 0.000000 1.000000
vn 0.000000 0.000000 1.000000
vn 0.000000 0.000001 1.000000
vn 0.000000 0.000000 1.000000
vn 0.000000 0.000000 1.000000
vn 0.000000 0.000001 1.000000
vn 0.000000 0.000000 1.000000
vn 0.000000 0.000001 1.000000
vn 0.000000 -0.000002 1.000000
vn 0.000000 0.000000 1.000000
vn 0.000000 0.000001 1.000000
vn 0.000000 -0.000002 1.000000
vn 0.000000 0.000000 1.000000
vn 0.000000 -0.000002 1.000000
vn 0.000000 0.000001 1.000000
vn 0.000000 0.000000 1.000000
vn 0.000000 -0.000002 1.000000
vn 0.000000 0.000000 1.000000
vn 0.000000 0.000000 1.000000
vn 0.000000 0.000001 1.000000
vn 0.000000 0.000000 1.000000
vn 0.000000 0.000000 1.000000
vn 0.000000 0.000000 1.000000
vn 0.000000 0.000002 1.000000
vn 0.000000 0.000000 1.000000
vn 0.000000 0.000000 1.000000
vn 0.000000 0.000000 1.000000
vn 0.000000 0.000000 1.000000
vn 0.000000 0.000002 1.000000
vn 0.000000 -0.000001 1.000000
vn 0.000000 0.000000 1.000000
vn 0.000000 0.000000 1.000000
vn 0.000000 0.000000 1.000000
vn 0.000000 0.000000 1.000000
vn 0.000000 -0.000001 1.000000
vn 0.000000 0.000000 1.000000
vn 0.000000 0.000000 1.000000
vn 0.000000 0.000000 1.000000
vn 0.000000 0.000000 1.000000
vn 0.000000 0.000000 1.000000
vn 0.000000 0.000000 1.000000
vn 0.000000 0.000000 1.000000
vn 0.000000 0.000000 1.000000
vn 0.000000 0.000000 1.000000
vn 0.000000 0.000000 1.000000
vn 0.000000 0.000000 1.000000
vn 0.000000 0.000000 1.000000
vn 0.000000 0.000000 1.000000
vn 0.000000 0.000000 1.000000
vn 0.000000 0.000000 1.000000
vn 0.000000 0.000000 1.000000
vn 0.000000 0.000000 1.000000
vn 0.000000 0.000000 1.000000
vn 0.000000 -0.000001 1.000000
vn 0.000000 0.000000 1.000000
vn 0.000000 0.000000 1.000000
vn 0.000000 0.000000 1.000000
vn 0.000000 0.000000 1.000000
vn 0.000000 -0.000001 1.000000
vn 0.000000 0.000002 1.000000
vn 0.000000 0.000000 1.000000
vn 0.000000 0.000000 1.000000
vn 0.000000 0.000001 1.000000
vn 0.000000 0.000000 1.000000
vn 0.000000 0.000002 1.000000
vn 0.000000 -0.000001 1.000000
vn 0.000000 0.000000 1.000000
vn 0.000000 0.000001 1.000000
vn 0.000000 0.000000 1.000000
vn 0.000000 0.000000 1.000000
vn 0.000000 -0.000001 1.000000
vn 0.000000 0.000001 -1.000000
vn 0.000000 0.000000 -1.000000
vn 0.000000 0.000001 -1.000000
vn 0.000000 0.000001 -1.000000
vn 0.000000 0.000000 -1.000000
vn 0.000000 0.000000 -1.000000
vn 0.000000 0.000000 -1.000000
vn 0.000000 0.000000 -1.000000
vn 0.000000 -0.000001 -1.000000
vn 0.000000 -0.000001 -1.000000
vn 0.000000 0.000000 -1.000000
vn 0.000000 0.000000 -1.000000
vn 0.000000 0.000000 -1.000000
vn 0.000000 0.000000 -1.000000
vn 0.000000 0.000000 -1.000000
vn 0.000000 0.000000 -1.000000
vn 0.000000 0.000000 -1.000000
vn 0.000000 0.000000 -1.000000
vn 0.000000 0.000000 -1.000000
vn 0.000000 0.000000 -1.000000
vn 0.000000 0.000000 -1.000000
vn 0.000000 0.000000 -1.000000
vn 0.000000 0.000000 -1.000000
vn 0.000000 0.000000 -1.000000
vn 0.000000 0.000000 -1.000000
vn 0.000000 0.000000 -1.000000
vn 0.000000 0.000000 -1.000000
vn 0.000000 0.000000 -1.000000
vn 0.000000 0.000000 -1.000000
vn 0.000000 0.000000 -1.000000
vn 0.000000 0.000000 -1.000000
vn 0.000000 0.000000 -1.000000
vn 0.000000 -0.000001 -1.000000
vn 0.000000 -0.000001 -1.000000
vn 0.000000 0.000000 -1.000000
vn 0.000000 -0.000001 -1.000000
vn 0.000000 -0.000001 -1.000000
vn 0.000000 0.000000 -1.000000
vn 0.000000 0.000001 -1.000000
vn 0.000000 0.000001 -1.000000
vn 0.000000 0.000000 -1.000000
vn 0.000000 0.000000 -1.000000
vn 0.000000 0.000000 -1.000000
vn 0.000000 0.000000 -1.000000
vn 0.000000 0.000000 -1.000000
vn 0.000000 0.000000 -1.000000
vn 0.000000 0.000000 -1.000000
vn 0.000000 0.000001 -1.000000
vn 0.000000 0.000001 -1.000000
vn 0.000000 0.000000 -1.000000
vn 0.000000 -0.000001 -1.000000
vn 0.000000 -0.000001 -1.000000
vn 0.000000 0.000000 -1.000000
vn 0.000000 -0.000001 -1.000000
vn 0.000000 -0.000001 -1.000000
vn 0.000000 0.000000 -1.000000
vn 0.000000 0.000001 -1.000000
vn 0.000000 0.000001 -1.000000
vn 0.000000 0.000000 -1.000000
vn 0.000000 0.000000 -1.000000
vn 0.000000 0.000000 -1.000000
vn 0.000000 0.000000 -1.000000
vn 0.000000 0.000000 -1.000000
vn 0.000000 0.000000 -1.000000
vn 0.000000 0.000000 -1.000000
vn 0.000000 0.000000 -1.000000
vn 0.000000 0.000000 -1.000000
vn 0.000000 0.000000 -1.000000
vn 0.000000 0.000000 -1.000000
vn 0.000000 0.000000 -1.000000
vn 0.000000 0.000000 -1.000000
vn 0.000000 0.000000 -1.000000
vn 0.000000 0.000000 -1.000000
vn 0.000000 0.000000 -1.000000
vn 0.000000 0.000000 -1.000000
vn 0.000000 0.000000 -1.000000
vn 0.000000 0.000000 -1.000000
vn 0.000000 0.000000 -1.000000
vn 0.000000 0.000000 -1.000000
vn 0.000000 0.000000 -1.000000
vn 0.000000 0.000001 -1.000000
vn 0.000000 0.000001 -1.000000
vn 0.000000 0.000000 -1.000000
vn 0.000000 0.000000 -1.000000
vn 0.000000 0.000000 -1.000000
vn 0.000000 0.000000 -1.000000
vn 0.000000 0.000000 -1.000000
vn 0.000000 0.000000 -1.000000
vn 0.000000 0.000000 -1.000000
vn 0.000000 0.000000 -1.000000
vn 0.000000 0.000000 -1.000000
vn 0.000000 0.000000 -1.000000
vn 0.000000 -0.000001 -1.000000
vn 0.000000 -0.000001 -1.000000
vn 0.000000 0.000000 -1.000000
vn 0.000000 0.000001 -1.000000
s off
g Door_Ausgang1
usemtl Door_Ausgang:initialShadingGroup
f 1/1/1 33/2/2 34/3/3 2/4/4
f 2/4/5 34/3/6 35/5/7 3/6/8
f 3/6/9 35/5/10 36/7/11 4/8/12
f 4/8/13 36/7/14 37/9/15 5/10/16
f 5/10/17 37/9/18 38/11/19 6/12/20
f 6/12/21 38/11/22 39/13/23 7/14/24
f 7/14/25 39/13/26 40/15/27 8/16/28
f 8/16/29 40/15/30 41/17/31 9/18/32
f 9/18/33 41/17/34 42/19/35 10/20/36
f 10/20/37 42/19/38 43/21/39 11/22/40
f 11/22/41 43/21/42 44/23/43 12/24/44
f 12/24/45 44/23/46 45/25/47 13/26/48
f 13/26/49 45/25/50 46/27/51 14/28/52
f 14/28/53 46/27/54 47/29/55 15/30/56
f 15/30/57 47/29/58 48/31/59 16/32/60
f 16/32/61 48/31/62 49/33/63 17/34/64
f 17/34/65 49/33/66 50/35/67 18/36/68
f 18/36/69 50/35/70 51/37/71 19/38/72
f 19/38/73 51/37/74 52/39/75 20/40/76
f 20/40/77 52/39/78 53/41/79 21/42/80
f 21/42/81 53/41/82 54/43/83 22/44/84
f 22/44/85 54/43/86 55/45/87 23/46/88
f 23/46/89 55/45/90 56/47/91 24/48/92
f 24/48/93 56/47/94 57/49/95 25/50/96
f 25/50/97 57/49/98 58/51/99 26/52/100
f 26/52/101 58/51/102 59/53/103 27/54/104
f 27/54/105 59/53/106 60/55/107 28/56/108
f 28/56/109 60/55/110 61/57/111 29/58/112
f 29/58/113 61/57/114 62/59/115 30/60/116
f 30/60/117 62/59/118 63/61/119 31/62/120
f 31/62/121 63/61/122 64/63/123 32/64/124
f 32/64/125 64/63/126 33/65/127 1/66/128
f 2/67/129 65/68/130 1/69/131
f 3/70/132 65/68/133 2/67/134
f 4/71/135 65/68/136 3/70/137
f 5/72/138 65/68/139 4/71/140
f 6/73/141 65/68/142 5/72/143
f 7/74/144 65/68/145 6/73/146
f 8/75/147 65/68/148 7/74/149
f 9/76/150 65/68/151 8/75/152
f 10/77/153 65/68/154 9/76/155
f 11/78/156 65/68/157 10/77/158
f 12/79/159 65/68/160 11/78/161
f 13/80/162 65/68/163 12/79/164
f 14/81/165 65/68/166 13/80/167
f 15/82/168 65/68/169 14/81/170
f 16/83/171 65/68/172 15/82/173
f 17/84/174 65/68/175 16/83/176
f 18/85/177 65/68/178 17/84/179
f 19/86/180 65/68/181 18/85/182
f 20/87/183 65/68/184 19/86/185
f 21/88/186 65/68/187 20/87/188
f 22/89/189 65/68/190 21/88/191
f 23/90/192 65/68/193 22/89/194
f 24/91/195 65/68/196 23/90/197
f 25/92/198 65/68/199 24/91/200
f 26/93/201 65/68/202 25/92/203
f 27/94/204 65/68/205 26/93/206
f 28/95/207 65/68/208 27/94/209
f 29/96/210 65/68/211 28/95/212
f 30/97/213 65/68/214 29/96/215
f 31/98/216 65/68/217 30/97/218
f 32/99/219 65/68/220 31/98/221
f 1/69/222 65/68/223 32/99/224
f 33/100/225 66/101/226 34/102/227
f 34/102/228 66/101/229 35/103/230
f 35/103/231 66/101/232 36/104/233
f 36/104/234 66/101/235 37/105/236
f 37/105/237 66/101/238 38/106/239
f 38/106/240 66/101/241 39/107/242
f 39/107/243 66/101/244 40/108/245
f 40/108/246 66/101/247 41/109/248
f 41/109/249 66/101/250 42/110/251
f 42/110/252 66/101/253 43/111/254
f 43/111/255 66/101/256 44/112/257
f 44/112/258 66/101/259 45/113/260
f 45/113/261 66/101/262 46/114/263
f 46/114/264 66/101/265 47/115/266
f 47/115/267 66/101/268 48/116/269
f 48/116/270 66/101/271 49/117/272
f 49/117/273 66/101/274 50/118/275
f 50/118/276 66/101/277 51/119/278
f 51/119/279 66/101/280 52/120/281
f 52/120/282 66/101/283 53/121/284
f 53/121/285 66/101/286 54/122/287
f 54/122/288 66/101/289 55/123/290
f 55/123/291 66/101/292 56/124/293
f 56/124/294 66/101/295 57/125/296
f 57/125/297 66/101/298 58/126/299
f 58/126/300 66/101/301 59/127/302
f 59/127/303 66/101/304 60/128/305
f 60/128/306 66/101/307 61/129/308
f 61/129/309 66/101/310 62/130/311
f 62/130/312 66/101/313 63/131/314
f 63/131/315 66/101/316 64/132/317
f 64/132/318 66/101/319 33/100/320
