# This file uses meters as units for non-parametric coordinates.

mtllib Hallway_Floor.mtl
g default
v 0.000000 0.000000 0.000000
v 100.000000 0.000000 0.000000
v 0.000000 0.000000 -100.000000
v 100.000000 0.000000 -100.000000
v 26.108702 0.000000 -100.000000
v 73.891296 0.000000 -100.000000
v 26.108702 0.000000 0.000000
v 73.891296 0.000000 0.000000
v 27.553410 -0.610001 0.000000
v 27.553410 -0.610001 -100.000000
v 72.446587 -0.610001 0.000000
v 72.446587 -0.610001 -100.000000
vt 0.375000 0.250000
vt 0.625000 0.250000
vt 0.375000 0.500000
vt 0.625000 0.500000
vt 0.440272 0.500000
vt 0.559728 0.500000
vt 0.440272 0.250000
vt 0.559728 0.250000
vt 0.440272 0.500000
vt 0.440272 0.250000
vt 0.559728 0.250000
vt 0.559728 0.500000
vn 0.000000 1.000000 0.000000
vn 0.000000 1.000000 0.000000
vn 0.000000 1.000000 0.000000
vn 0.000000 1.000000 0.000000
vn 0.000000 1.000000 0.000000
vn 0.000000 1.000000 0.000000
vn 0.000000 1.000000 0.000000
vn 0.000000 1.000000 0.000000
vn 0.000000 1.000000 0.000000
vn 0.000000 1.000000 0.000000
vn 0.000000 1.000000 0.000000
vn 0.000000 1.000000 0.000000
vn 0.388979 0.921247 0.000000
vn 0.388979 0.921247 0.000000
vn 0.388979 0.921247 0.000000
vn 0.388979 0.921247 0.000000
vn -0.388978 0.921247 0.000000
vn -0.388978 0.921247 0.000000
vn -0.388978 0.921247 0.000000
vn -0.388978 0.921247 0.000000
s off
g Floor
usemtl initialShadingGroup
f 6/6/1 8/8/2 2/2/3 4/4/4
f 1/1/5 7/7/6 5/5/7 3/3/8
f 10/9/9 9/10/10 11/11/11 12/12/12
f 5/5/13 7/7/14 9/10/15 10/9/16
f 8/8/17 6/6/18 12/12/19 11/11/20
